<svg width="20" height="20" viewBox="0 0 20 20" fill="none" xmlns="http://www.w3.org/2000/svg">
<path fill-rule="evenodd" clip-rule="evenodd" d="M13.0547 4.66794C10.4682 2.94361 7.50895 3.12415 5.32692 3.65312C4.22264 3.92082 3.27387 4.28741 2.60169 4.58615C2.26454 4.736 1.99416 4.87003 1.80542 4.96813C1.71099 5.01721 1.63679 5.05741 1.58467 5.08622C1.5586 5.10063 1.53804 5.11221 1.52322 5.12063L1.5053 5.13088L1.49962 5.13416L1.49761 5.13533L1.49681 5.13579C1.49646 5.13599 1.49615 5.13618 2.00001 5.99996L1.49615 5.13618L0.632366 5.64005L1.6401 7.36761L2.5026 6.86449L2.50265 6.86446L2.50297 6.86427L2.50336 6.86405L2.50346 6.86399L2.51151 6.85939C2.51966 6.85476 2.53334 6.84704 2.55232 6.83655C2.59029 6.81556 2.64939 6.78349 2.72781 6.74273C2.88478 6.66114 3.11831 6.54518 3.41396 6.41378C4.00741 6.15003 4.83989 5.82912 5.79811 5.59683C7.74108 5.12581 10.0318 5.05636 11.9453 6.33204C12.7474 6.86679 13.4347 7.4713 14.0209 8.09626L10.9572 11.543L7.70712 8.29288L7.00001 7.58577L6.29291 8.29288L0.292908 14.2929L1.70712 15.7071L7.00001 10.4142L10.2929 13.7071L11.0428 14.457L11.7474 13.6644L15.2888 9.68027C15.5529 10.067 15.7826 10.4458 15.9811 10.8048C16.3738 11.5148 16.6403 12.1397 16.8073 12.5825C16.8906 12.8036 16.9488 12.9784 16.9853 13.0945C17.0035 13.1526 17.0163 13.1959 17.0241 13.2229L17.032 13.251L17.0328 13.2541L17.033 13.2546L17.0331 13.2552L17.0331 13.2553L17.0332 13.2555L17.2861 14.2208L19.2208 13.714L18.9674 12.7466L18 13.0001C18.9674 12.7466 18.9673 12.7463 18.9672 12.7459L18.967 12.7451L18.9664 12.7431L18.965 12.7378L18.9608 12.7223L18.9549 12.7011L18.9465 12.6715C18.9344 12.6291 18.9168 12.5698 18.8934 12.4953C18.8466 12.3463 18.7763 12.1359 18.6787 11.8769C18.4836 11.3597 18.1782 10.6449 17.7313 9.83686C17.4379 9.30641 17.0816 8.7322 16.6531 8.14552L19.7474 4.66435L18.2526 3.33562L15.3544 6.59609C14.7011 5.91682 13.9394 5.25773 13.0547 4.66794Z" fill="#FCFCFD"/>
</svg>
