<svg width="16" height="16" viewBox="0 0 16 16" fill="none" xmlns="http://www.w3.org/2000/svg">
<g clip-path="url(#clip0_1_3162)">
<path fill-rule="evenodd" clip-rule="evenodd" d="M13 0V1C14.1046 1.00001 15 1.89544 15 3H16V5H15V7H16V9H15V11H16V13H15C15 14.1046 14.1046 15 13 15V16H11V15H9V16H7V15H5V16H3L3 15C1.89544 15 1.00001 14.1046 1 13H0V11H1V9H0V7H1V5H0V3L1 3C1 1.89543 1.89543 1 3 1L3 0H5V1H7V0H9V1H11V0H13ZM13 3H3V13H13V3ZM5.99999 5C5.4477 5 4.99999 5.44772 4.99999 6V10C4.99999 10.5523 5.4477 11 5.99999 11H9.99999C10.5523 11 11 10.5523 11 10V6C11 5.44772 10.5523 5 9.99999 5H5.99999Z" fill="#FCFCFD"/>
</g>
<defs>
<clipPath id="clip0_1_3162">
<rect width="16" height="16" fill="white"/>
</clipPath>
</defs>
</svg>
