<svg width="16" height="16" viewBox="0 0 16 16" fill="none" xmlns="http://www.w3.org/2000/svg">
<path d="M1.85355 1.14645L1.5 0.792893L0.792893 1.5L1.14645 1.85355L1.85355 1.14645ZM14.1464 14.8536L14.5 15.2071L15.2071 14.5L14.8536 14.1464L14.1464 14.8536ZM1.14645 14.1464L0.792893 14.5L1.5 15.2071L1.85355 14.8536L1.14645 14.1464ZM14.8536 1.85355L15.2071 1.5L14.5 0.792893L14.1464 1.14645L14.8536 1.85355ZM1.14645 1.85355L7.64645 8.35355L8.35355 7.64645L1.85355 1.14645L1.14645 1.85355ZM7.64645 8.35355L14.1464 14.8536L14.8536 14.1464L8.35355 7.64645L7.64645 8.35355ZM1.85355 14.8536L8.35355 8.35355L7.64645 7.64645L1.14645 14.1464L1.85355 14.8536ZM8.35355 8.35355L14.8536 1.85355L14.1464 1.14645L7.64645 7.64645L8.35355 8.35355Z" fill="#FCFCFD"/>
</svg>
