<svg width="20" height="20" viewBox="0 0 20 20" fill="none" xmlns="http://www.w3.org/2000/svg">
<circle cx="17" cy="7" r="1" transform="rotate(-180 17 7)" fill="#FCFCFD"/>
<path d="M17.25 4.04268C17.25 3.62846 17.5858 3.29268 18 3.29268C18.4142 3.29268 18.75 3.62846 18.75 4.04268C18.75 4.45689 18.4142 4.79268 18 4.79268C17.5858 4.79268 17.25 4.45689 17.25 4.04268Z" fill="#FCFCFD"/>
<path d="M18.5 1.5C18.5 1.22386 18.7239 1 19 1C19.2761 1 19.5 1.22386 19.5 1.5C19.5 1.77614 19.2761 2 19 2C18.7239 2 18.5 1.77614 18.5 1.5Z" fill="#FCFCFD"/>
<path fill-rule="evenodd" clip-rule="evenodd" d="M9.87776 3.99683C9.45011 4.61144 8.83043 5.08241 8.10562 5.32286L9.01721 10.1847L10.0001 10.0004L9.01721 10.1847L10.0514 15.7005C10.6632 18.9633 15.3369 18.9633 15.9487 15.7005L16.9829 10.1844L15.0172 9.81582L13.9829 15.3319C13.779 16.4195 12.2211 16.4195 12.0172 15.3319L10.983 9.81614L9.94867 4.29992C9.9291 4.19555 9.90537 4.09452 9.87776 3.99683ZM5.89481 5.32114C5.17002 5.07944 4.5507 4.6071 4.12393 3.99121C4.09564 4.09065 4.07138 4.19355 4.05143 4.29992L3.01718 9.81602C2.91541 10.3588 3.27295 10.8814 3.81577 10.9832C4.3586 11.085 4.88115 10.7274 4.98293 10.1846L5.89481 5.32114Z" fill="#FCFCFD"/>
<path fill-rule="evenodd" clip-rule="evenodd" d="M3 14C3.55228 14 4 13.5523 4 13C4 12.4477 3.55228 12 3 12C2.44772 12 2 12.4477 2 13C2 13.5523 2.44772 14 3 14ZM2.75 15.9573C2.75 16.3715 2.41421 16.7073 2 16.7073C1.58579 16.7073 1.25 16.3715 1.25 15.9573C1.25 15.5431 1.58579 15.2073 2 15.2073C2.41421 15.2073 2.75 15.5431 2.75 15.9573ZM1.5 18.5C1.5 18.7761 1.27614 19 1 19C0.723858 19 0.5 18.7761 0.5 18.5C0.5 18.2239 0.723858 18 1 18C1.27614 18 1.5 18.2239 1.5 18.5Z" fill="#FCFCFD"/>
<path d="M1 10H19" stroke="#FCFCFD" stroke-width="2"/>
<path d="M9 2C9 3.10457 8.10457 4 7 4C5.89543 4 5 3.10457 5 2C5 0.89543 5.89543 0 7 0C8.10457 0 9 0.89543 9 2Z" fill="#FCFCFD"/>
</svg>
