<svg width="16" height="16" viewBox="0 0 16 16" fill="none" xmlns="http://www.w3.org/2000/svg">
<path d="M8 0C3.584 0 0 3.584 0 8C0 12.416 3.584 16 8 16C12.416 16 16 12.416 16 8C16 3.584 12.416 0 8 0Z" fill="#282B2D"/>
<path fill-rule="evenodd" clip-rule="evenodd" d="M8 5C8.55228 5 9 4.55228 9 4C9 3.44772 8.55228 3 8 3C7.44772 3 7 3.44772 7 4C7 4.55228 7.44772 5 8 5ZM6.5 6C6.22386 6 6 6.22386 6 6.5C6 6.77614 6.22386 7 6.5 7C6.77614 7 7 7.22386 7 7.5V12H6.5C6.22386 12 6 12.2239 6 12.5C6 12.7761 6.22386 13 6.5 13H7.5H8.5H9.5C9.77614 13 10 12.7761 10 12.5C10 12.2239 9.77614 12 9.5 12H9V7.5C9 6.67157 8.32843 6 7.5 6H6.5Z" fill="#FCFCFD"/>
</svg>
