<svg width="20" height="20" viewBox="0 0 20 20" fill="none" xmlns="http://www.w3.org/2000/svg">
<path fill-rule="evenodd" clip-rule="evenodd" d="M20 10C20 15.5228 15.5228 20 10 20C4.47715 20 0 15.5228 0 10C0 4.47715 4.47715 0 10 0C15.5228 0 20 4.47715 20 10ZM11 14.9374C11 15.4897 10.5523 15.9374 10 15.9374C9.44771 15.9374 9 15.4897 9 14.9374C9 14.3851 9.44771 13.9374 10 13.9374C10.5523 13.9374 11 14.3851 11 14.9374ZM9.22334 4.30541C9.88145 4.03281 10.6056 3.96149 11.3043 4.10046C12.0029 4.23943 12.6447 4.58245 13.1484 5.08614C13.6521 5.58984 13.9951 6.23159 14.134 6.93023C14.273 7.62888 14.2017 8.35305 13.9291 9.01116C13.6153 9.7687 12.9952 10.4782 11.5707 11.2192C11.1205 11.4534 10.9227 11.7359 10.8567 11.9936C10.7985 12.2209 10.8083 12.5639 11.0401 13.0312H8.92191C8.7985 12.5164 8.79068 11.9991 8.91928 11.4972C9.15612 10.5729 9.80986 9.88075 10.6477 9.44491C11.7992 8.84591 12.0013 8.43902 12.0813 8.24579C12.2026 7.95313 12.2343 7.6311 12.1725 7.32041C12.1107 7.00973 11.9581 6.72435 11.7341 6.50036C11.5102 6.27636 11.2248 6.12383 10.9141 6.06203C10.6034 6.00023 10.2814 6.03194 9.98871 6.15317C9.69605 6.27439 9.44591 6.47967 9.26992 6.74306C9.09393 7.00645 9 7.3161 9 7.63288H7C7 6.92054 7.21123 6.2242 7.60698 5.63192C8.00274 5.03964 8.56523 4.57801 9.22334 4.30541Z" fill="#1F54BC"/>
</svg>
