<svg width="16" height="16" viewBox="0 0 16 16" fill="none" xmlns="http://www.w3.org/2000/svg">
<g clip-path="url(#clip0_1_3894)">
<path fill-rule="evenodd" clip-rule="evenodd" d="M10.6961 2.55894C9.46063 1.95559 8.06219 1.83697 6.75276 2.22183C5.67338 2.53909 4.70673 3.18338 3.97382 4.07296L6.47089 5.38138L0.974995 8.00001L-3.62396e-05 1.99073L2.17375 3.12975C3.17755 1.77232 4.58183 0.775314 6.18878 0.303001C7.97958 -0.223348 9.89209 -0.0594656 11.5738 0.761807C13.2542 1.5825 14.5854 3.00099 15.3344 4.74827C16.0831 6.49487 16.2041 8.46117 15.6771 10.2911C15.1499 12.1216 14.0064 13.7032 12.4441 14.7399C10.8805 15.7774 9.00542 16.1967 7.16296 15.9141C5.32105 15.6317 3.64713 14.6688 2.44227 13.2136C1.83865 12.4845 1.37257 11.6559 1.0578 10.7712L2.94208 10.1008C3.18016 10.77 3.53135 11.3928 3.98279 11.9381C4.88335 13.0258 6.12134 13.731 7.4661 13.9373C8.81031 14.1434 10.184 13.8393 11.3383 13.0734C12.4937 12.3067 13.3556 11.1253 13.7552 9.73763C14.155 8.34943 14.0624 6.85716 13.4962 5.53629C12.9302 4.2161 11.9327 3.16288 10.6961 2.55894Z" fill="#FCFCFD"/>
</g>
<defs>
<clipPath id="clip0_1_3894">
<rect width="16" height="16" fill="white"/>
</clipPath>
</defs>
</svg>
